<svg id="Layer_1" enable-background="new 0 0 512 512" height="512" viewBox="0 0 512 512" width="512" xmlns="http://www.w3.org/2000/svg"><path clip-rule="evenodd" d="m435.297 331.703c-33.446 0-61.774-21.716-71.79-51.796h-63.26c34.266 21.446 60.882 49.389 70.904 80.66 36.309 5.578 64.145 36.861 64.145 74.73 0 41.809-33.893 75.703-75.703 75.703s-75.703-33.894-75.703-75.703c0-30.325 17.872-56.41 43.62-68.494-14.689-40.479-75.281-86.896-125.093-86.896h-21.396c-10.529 38.998-46.054 67.734-88.381 67.734-50.611-.001-91.64-41.03-91.64-91.642 0-50.611 41.029-91.64 91.641-91.64 42.326 0 77.851 28.736 88.381 67.734h21.395c49.769 0 110.422-46.416 125.114-86.887-25.759-12.081-43.64-38.171-43.64-68.504 0-41.808 33.893-75.702 75.703-75.702s75.703 33.894 75.703 75.703c0 37.87-27.838 69.154-64.148 74.73-10.026 31.267-36.636 59.215-70.901 80.66h63.26c10.016-30.082 38.343-51.796 71.79-51.796 41.81 0 75.703 33.893 75.703 75.702-.001 41.81-33.895 75.704-75.704 75.704zm-75.703 147.421c24.205 0 43.828-19.622 43.828-43.828s-19.623-43.828-43.828-43.828c-24.206 0-43.828 19.622-43.828 43.828-.001 24.206 19.622 43.828 43.828 43.828zm0-358.593c24.205 0 43.828-19.622 43.828-43.828s-19.623-43.828-43.828-43.828c-24.206 0-43.828 19.622-43.828 43.828-.001 24.206 19.622 43.828 43.828 43.828zm75.703 91.64c-24.206 0-43.828 19.623-43.828 43.828 0 24.206 19.623 43.828 43.828 43.828s43.828-19.622 43.828-43.828c0-24.205-19.623-43.828-43.828-43.828z" fill-rule="evenodd"/></svg>